G75*
%MOIN*%
%OFA0B0*%
%FSLAX24Y24*%
%IPPOS*%
%LPD*%
%AMOC8*
5,1,8,0,0,1.08239X$1,22.5*
%
%ADD10C,0.0000*%
%ADD11C,0.0030*%
%ADD12C,0.0090*%
%ADD13C,0.0050*%
%ADD14C,0.0040*%
%ADD15C,0.0060*%
%ADD16R,0.0551X0.0039*%
%ADD17R,0.0551X0.0079*%
%ADD18R,0.0039X0.0079*%
%ADD19C,0.0080*%
D10*
X002269Y000300D02*
X037623Y000300D01*
X037709Y000302D01*
X037795Y000307D01*
X037880Y000317D01*
X037965Y000330D01*
X038049Y000347D01*
X038133Y000367D01*
X038215Y000391D01*
X038296Y000419D01*
X038377Y000450D01*
X038455Y000484D01*
X038532Y000522D01*
X038608Y000564D01*
X038681Y000608D01*
X038752Y000656D01*
X038822Y000707D01*
X038889Y000761D01*
X038953Y000817D01*
X039015Y000877D01*
X039075Y000939D01*
X039131Y001003D01*
X039185Y001070D01*
X039236Y001140D01*
X039284Y001211D01*
X039328Y001284D01*
X039370Y001360D01*
X039408Y001437D01*
X039442Y001515D01*
X039473Y001596D01*
X039501Y001677D01*
X039525Y001759D01*
X039545Y001843D01*
X039562Y001927D01*
X039575Y002012D01*
X039585Y002097D01*
X039590Y002183D01*
X039592Y002269D01*
X039591Y002269D02*
X039591Y017938D01*
X037072Y018017D02*
X037074Y018067D01*
X037080Y018117D01*
X037090Y018166D01*
X037104Y018214D01*
X037121Y018261D01*
X037142Y018306D01*
X037167Y018350D01*
X037195Y018391D01*
X037227Y018430D01*
X037261Y018467D01*
X037298Y018501D01*
X037338Y018531D01*
X037380Y018558D01*
X037424Y018582D01*
X037470Y018603D01*
X037517Y018619D01*
X037565Y018632D01*
X037615Y018641D01*
X037664Y018646D01*
X037715Y018647D01*
X037765Y018644D01*
X037814Y018637D01*
X037863Y018626D01*
X037911Y018611D01*
X037957Y018593D01*
X038002Y018571D01*
X038045Y018545D01*
X038086Y018516D01*
X038125Y018484D01*
X038161Y018449D01*
X038193Y018411D01*
X038223Y018371D01*
X038250Y018328D01*
X038273Y018284D01*
X038292Y018238D01*
X038308Y018190D01*
X038320Y018141D01*
X038328Y018092D01*
X038332Y018042D01*
X038332Y017992D01*
X038328Y017942D01*
X038320Y017893D01*
X038308Y017844D01*
X038292Y017796D01*
X038273Y017750D01*
X038250Y017706D01*
X038223Y017663D01*
X038193Y017623D01*
X038161Y017585D01*
X038125Y017550D01*
X038086Y017518D01*
X038045Y017489D01*
X038002Y017463D01*
X037957Y017441D01*
X037911Y017423D01*
X037863Y017408D01*
X037814Y017397D01*
X037765Y017390D01*
X037715Y017387D01*
X037664Y017388D01*
X037615Y017393D01*
X037565Y017402D01*
X037517Y017415D01*
X037470Y017431D01*
X037424Y017452D01*
X037380Y017476D01*
X037338Y017503D01*
X037298Y017533D01*
X037261Y017567D01*
X037227Y017604D01*
X037195Y017643D01*
X037167Y017684D01*
X037142Y017728D01*
X037121Y017773D01*
X037104Y017820D01*
X037090Y017868D01*
X037080Y017917D01*
X037074Y017967D01*
X037072Y018017D01*
X037623Y019907D02*
X037709Y019905D01*
X037795Y019900D01*
X037880Y019890D01*
X037965Y019877D01*
X038049Y019860D01*
X038133Y019840D01*
X038215Y019816D01*
X038296Y019788D01*
X038377Y019757D01*
X038455Y019723D01*
X038532Y019685D01*
X038608Y019643D01*
X038681Y019599D01*
X038752Y019551D01*
X038822Y019500D01*
X038889Y019446D01*
X038953Y019390D01*
X039015Y019330D01*
X039075Y019268D01*
X039131Y019204D01*
X039185Y019137D01*
X039236Y019067D01*
X039284Y018996D01*
X039328Y018923D01*
X039370Y018847D01*
X039408Y018770D01*
X039442Y018692D01*
X039473Y018611D01*
X039501Y018530D01*
X039525Y018448D01*
X039545Y018364D01*
X039562Y018280D01*
X039575Y018195D01*
X039585Y018110D01*
X039590Y018024D01*
X039592Y017938D01*
X037623Y019906D02*
X002269Y019906D01*
X001639Y018017D02*
X001641Y018067D01*
X001647Y018117D01*
X001657Y018166D01*
X001671Y018214D01*
X001688Y018261D01*
X001709Y018306D01*
X001734Y018350D01*
X001762Y018391D01*
X001794Y018430D01*
X001828Y018467D01*
X001865Y018501D01*
X001905Y018531D01*
X001947Y018558D01*
X001991Y018582D01*
X002037Y018603D01*
X002084Y018619D01*
X002132Y018632D01*
X002182Y018641D01*
X002231Y018646D01*
X002282Y018647D01*
X002332Y018644D01*
X002381Y018637D01*
X002430Y018626D01*
X002478Y018611D01*
X002524Y018593D01*
X002569Y018571D01*
X002612Y018545D01*
X002653Y018516D01*
X002692Y018484D01*
X002728Y018449D01*
X002760Y018411D01*
X002790Y018371D01*
X002817Y018328D01*
X002840Y018284D01*
X002859Y018238D01*
X002875Y018190D01*
X002887Y018141D01*
X002895Y018092D01*
X002899Y018042D01*
X002899Y017992D01*
X002895Y017942D01*
X002887Y017893D01*
X002875Y017844D01*
X002859Y017796D01*
X002840Y017750D01*
X002817Y017706D01*
X002790Y017663D01*
X002760Y017623D01*
X002728Y017585D01*
X002692Y017550D01*
X002653Y017518D01*
X002612Y017489D01*
X002569Y017463D01*
X002524Y017441D01*
X002478Y017423D01*
X002430Y017408D01*
X002381Y017397D01*
X002332Y017390D01*
X002282Y017387D01*
X002231Y017388D01*
X002182Y017393D01*
X002132Y017402D01*
X002084Y017415D01*
X002037Y017431D01*
X001991Y017452D01*
X001947Y017476D01*
X001905Y017503D01*
X001865Y017533D01*
X001828Y017567D01*
X001794Y017604D01*
X001762Y017643D01*
X001734Y017684D01*
X001709Y017728D01*
X001688Y017773D01*
X001671Y017820D01*
X001657Y017868D01*
X001647Y017917D01*
X001641Y017967D01*
X001639Y018017D01*
X000300Y017938D02*
X000302Y018024D01*
X000307Y018110D01*
X000317Y018195D01*
X000330Y018280D01*
X000347Y018364D01*
X000367Y018448D01*
X000391Y018530D01*
X000419Y018611D01*
X000450Y018692D01*
X000484Y018770D01*
X000522Y018847D01*
X000564Y018923D01*
X000608Y018996D01*
X000656Y019067D01*
X000707Y019137D01*
X000761Y019204D01*
X000817Y019268D01*
X000877Y019330D01*
X000939Y019390D01*
X001003Y019446D01*
X001070Y019500D01*
X001140Y019551D01*
X001211Y019599D01*
X001285Y019643D01*
X001360Y019685D01*
X001437Y019723D01*
X001515Y019757D01*
X001596Y019788D01*
X001677Y019816D01*
X001759Y019840D01*
X001843Y019860D01*
X001927Y019877D01*
X002012Y019890D01*
X002097Y019900D01*
X002183Y019905D01*
X002269Y019907D01*
X000300Y017938D02*
X000300Y002269D01*
X001639Y002269D02*
X001641Y002319D01*
X001647Y002369D01*
X001657Y002418D01*
X001671Y002466D01*
X001688Y002513D01*
X001709Y002558D01*
X001734Y002602D01*
X001762Y002643D01*
X001794Y002682D01*
X001828Y002719D01*
X001865Y002753D01*
X001905Y002783D01*
X001947Y002810D01*
X001991Y002834D01*
X002037Y002855D01*
X002084Y002871D01*
X002132Y002884D01*
X002182Y002893D01*
X002231Y002898D01*
X002282Y002899D01*
X002332Y002896D01*
X002381Y002889D01*
X002430Y002878D01*
X002478Y002863D01*
X002524Y002845D01*
X002569Y002823D01*
X002612Y002797D01*
X002653Y002768D01*
X002692Y002736D01*
X002728Y002701D01*
X002760Y002663D01*
X002790Y002623D01*
X002817Y002580D01*
X002840Y002536D01*
X002859Y002490D01*
X002875Y002442D01*
X002887Y002393D01*
X002895Y002344D01*
X002899Y002294D01*
X002899Y002244D01*
X002895Y002194D01*
X002887Y002145D01*
X002875Y002096D01*
X002859Y002048D01*
X002840Y002002D01*
X002817Y001958D01*
X002790Y001915D01*
X002760Y001875D01*
X002728Y001837D01*
X002692Y001802D01*
X002653Y001770D01*
X002612Y001741D01*
X002569Y001715D01*
X002524Y001693D01*
X002478Y001675D01*
X002430Y001660D01*
X002381Y001649D01*
X002332Y001642D01*
X002282Y001639D01*
X002231Y001640D01*
X002182Y001645D01*
X002132Y001654D01*
X002084Y001667D01*
X002037Y001683D01*
X001991Y001704D01*
X001947Y001728D01*
X001905Y001755D01*
X001865Y001785D01*
X001828Y001819D01*
X001794Y001856D01*
X001762Y001895D01*
X001734Y001936D01*
X001709Y001980D01*
X001688Y002025D01*
X001671Y002072D01*
X001657Y002120D01*
X001647Y002169D01*
X001641Y002219D01*
X001639Y002269D01*
X000300Y002269D02*
X000302Y002183D01*
X000307Y002097D01*
X000317Y002012D01*
X000330Y001927D01*
X000347Y001843D01*
X000367Y001759D01*
X000391Y001677D01*
X000419Y001596D01*
X000450Y001515D01*
X000484Y001437D01*
X000522Y001360D01*
X000564Y001285D01*
X000608Y001211D01*
X000656Y001140D01*
X000707Y001070D01*
X000761Y001003D01*
X000817Y000939D01*
X000877Y000877D01*
X000939Y000817D01*
X001003Y000761D01*
X001070Y000707D01*
X001140Y000656D01*
X001211Y000608D01*
X001284Y000564D01*
X001360Y000522D01*
X001437Y000484D01*
X001515Y000450D01*
X001596Y000419D01*
X001677Y000391D01*
X001759Y000367D01*
X001843Y000347D01*
X001927Y000330D01*
X002012Y000317D01*
X002097Y000307D01*
X002183Y000302D01*
X002269Y000300D01*
X037072Y002269D02*
X037074Y002319D01*
X037080Y002369D01*
X037090Y002418D01*
X037104Y002466D01*
X037121Y002513D01*
X037142Y002558D01*
X037167Y002602D01*
X037195Y002643D01*
X037227Y002682D01*
X037261Y002719D01*
X037298Y002753D01*
X037338Y002783D01*
X037380Y002810D01*
X037424Y002834D01*
X037470Y002855D01*
X037517Y002871D01*
X037565Y002884D01*
X037615Y002893D01*
X037664Y002898D01*
X037715Y002899D01*
X037765Y002896D01*
X037814Y002889D01*
X037863Y002878D01*
X037911Y002863D01*
X037957Y002845D01*
X038002Y002823D01*
X038045Y002797D01*
X038086Y002768D01*
X038125Y002736D01*
X038161Y002701D01*
X038193Y002663D01*
X038223Y002623D01*
X038250Y002580D01*
X038273Y002536D01*
X038292Y002490D01*
X038308Y002442D01*
X038320Y002393D01*
X038328Y002344D01*
X038332Y002294D01*
X038332Y002244D01*
X038328Y002194D01*
X038320Y002145D01*
X038308Y002096D01*
X038292Y002048D01*
X038273Y002002D01*
X038250Y001958D01*
X038223Y001915D01*
X038193Y001875D01*
X038161Y001837D01*
X038125Y001802D01*
X038086Y001770D01*
X038045Y001741D01*
X038002Y001715D01*
X037957Y001693D01*
X037911Y001675D01*
X037863Y001660D01*
X037814Y001649D01*
X037765Y001642D01*
X037715Y001639D01*
X037664Y001640D01*
X037615Y001645D01*
X037565Y001654D01*
X037517Y001667D01*
X037470Y001683D01*
X037424Y001704D01*
X037380Y001728D01*
X037338Y001755D01*
X037298Y001785D01*
X037261Y001819D01*
X037227Y001856D01*
X037195Y001895D01*
X037167Y001936D01*
X037142Y001980D01*
X037121Y002025D01*
X037104Y002072D01*
X037090Y002120D01*
X037080Y002169D01*
X037074Y002219D01*
X037072Y002269D01*
D11*
X025488Y005854D02*
X025295Y005854D01*
X025198Y005951D01*
X025295Y006047D01*
X025488Y006047D01*
X025392Y006149D02*
X025392Y006197D01*
X025198Y006197D01*
X025198Y006149D02*
X025198Y006245D01*
X025198Y006345D02*
X025198Y006490D01*
X025247Y006538D01*
X025343Y006538D01*
X025392Y006490D01*
X025392Y006345D01*
X025488Y006345D02*
X025198Y006345D01*
X025008Y006517D02*
X025008Y006565D01*
X024718Y006565D01*
X024718Y006517D02*
X024718Y006614D01*
X024718Y006713D02*
X024718Y006810D01*
X024718Y006762D02*
X025008Y006762D01*
X025008Y006713D01*
X025198Y006640D02*
X025392Y006640D01*
X025392Y006736D02*
X025295Y006640D01*
X025392Y006736D02*
X025392Y006785D01*
X025392Y006934D02*
X025392Y007030D01*
X025343Y007079D01*
X025198Y007079D01*
X025198Y006934D01*
X025247Y006885D01*
X025295Y006934D01*
X025295Y007079D01*
X025392Y007180D02*
X025392Y007277D01*
X025440Y007228D02*
X025247Y007228D01*
X025198Y007277D01*
X025198Y007376D02*
X025198Y007473D01*
X025198Y007425D02*
X025392Y007425D01*
X025392Y007376D01*
X025488Y007425D02*
X025537Y007425D01*
X025343Y007573D02*
X025247Y007573D01*
X025198Y007621D01*
X025198Y007718D01*
X025247Y007766D01*
X025343Y007766D01*
X025392Y007718D01*
X025392Y007621D01*
X025343Y007573D01*
X025392Y007867D02*
X025392Y008012D01*
X025343Y008061D01*
X025198Y008061D01*
X025198Y007867D02*
X025392Y007867D01*
X024912Y007939D02*
X024863Y007987D01*
X024718Y007987D01*
X024718Y007794D02*
X024912Y007794D01*
X024912Y007939D01*
X024912Y007692D02*
X024767Y007692D01*
X024718Y007644D01*
X024767Y007596D01*
X024718Y007547D01*
X024767Y007499D01*
X024912Y007499D01*
X024863Y007398D02*
X024912Y007349D01*
X024912Y007253D01*
X024863Y007204D01*
X024767Y007204D01*
X024718Y007253D01*
X024718Y007349D01*
X024767Y007398D01*
X024863Y007398D01*
X024912Y007103D02*
X024912Y006958D01*
X024863Y006910D01*
X024767Y006910D01*
X024718Y006958D01*
X024718Y007103D01*
X025008Y007103D01*
X024912Y006416D02*
X024718Y006416D01*
X024718Y006271D01*
X024767Y006222D01*
X024912Y006222D01*
X024960Y006121D02*
X024863Y006121D01*
X024815Y006073D01*
X024815Y005928D01*
X024718Y005928D02*
X025008Y005928D01*
X025008Y006073D01*
X024960Y006121D01*
X025488Y006197D02*
X025537Y006197D01*
X025008Y008733D02*
X024815Y008733D01*
X024718Y008829D01*
X024815Y008926D01*
X025008Y008926D01*
X024863Y009027D02*
X024767Y009027D01*
X024718Y009076D01*
X024718Y009172D01*
X024767Y009221D01*
X024863Y009221D01*
X024912Y009172D01*
X024912Y009076D01*
X024863Y009027D01*
X024718Y009322D02*
X024718Y009419D01*
X024718Y009370D02*
X025008Y009370D01*
X025008Y009322D01*
X025198Y009322D02*
X025198Y009515D01*
X025198Y009616D02*
X025198Y009762D01*
X025247Y009810D01*
X025440Y009810D01*
X025488Y009762D01*
X025488Y009616D01*
X025198Y009616D01*
X024960Y009567D02*
X024767Y009567D01*
X024718Y009615D01*
X024912Y009615D02*
X024912Y009518D01*
X025198Y009322D02*
X025488Y009322D01*
X025488Y009911D02*
X025488Y010056D01*
X025440Y010105D01*
X025343Y010105D01*
X025295Y010056D01*
X025295Y009911D01*
X025198Y009911D02*
X025488Y009911D01*
X025295Y010008D02*
X025198Y010105D01*
X025008Y010154D02*
X025008Y010009D01*
X024718Y010009D01*
X024718Y010154D01*
X024767Y010203D01*
X024960Y010203D01*
X025008Y010154D01*
X024912Y010304D02*
X024912Y010352D01*
X024718Y010352D01*
X024718Y010304D02*
X024718Y010401D01*
X024718Y010597D02*
X024912Y010694D01*
X024912Y010500D02*
X024718Y010597D01*
X025008Y010352D02*
X025057Y010352D01*
X025008Y011095D02*
X024815Y011095D01*
X024718Y011191D01*
X024815Y011288D01*
X025008Y011288D01*
X024863Y011389D02*
X024767Y011389D01*
X024718Y011438D01*
X024718Y011535D01*
X024767Y011583D01*
X024863Y011583D01*
X024912Y011535D01*
X024912Y011438D01*
X024863Y011389D01*
X024718Y011684D02*
X024718Y011781D01*
X024718Y011732D02*
X025008Y011732D01*
X025008Y011684D01*
X025198Y011709D02*
X025488Y011709D01*
X025488Y011607D02*
X025488Y011414D01*
X025488Y011511D02*
X025198Y011511D01*
X025343Y011709D02*
X025392Y011757D01*
X025392Y011854D01*
X025343Y011902D01*
X025198Y011902D01*
X025247Y012003D02*
X025343Y012003D01*
X025392Y012052D01*
X025392Y012148D01*
X025343Y012197D01*
X025295Y012197D01*
X025295Y012003D01*
X025247Y012003D02*
X025198Y012052D01*
X025198Y012148D01*
X025198Y012298D02*
X025392Y012298D01*
X025295Y012298D02*
X025392Y012395D01*
X025392Y012443D01*
X025392Y012543D02*
X025392Y012592D01*
X025343Y012640D01*
X025392Y012689D01*
X025343Y012737D01*
X025198Y012737D01*
X025198Y012640D02*
X025343Y012640D01*
X025392Y012543D02*
X025198Y012543D01*
X025008Y012517D02*
X025008Y012372D01*
X024718Y012372D01*
X024718Y012517D01*
X024767Y012565D01*
X024960Y012565D01*
X025008Y012517D01*
X024912Y012666D02*
X024912Y012715D01*
X024718Y012715D01*
X024718Y012763D02*
X024718Y012666D01*
X024912Y012863D02*
X024718Y012959D01*
X024912Y013056D01*
X025008Y012715D02*
X025057Y012715D01*
X024912Y011977D02*
X024912Y011880D01*
X024960Y011929D02*
X024767Y011929D01*
X024718Y011977D01*
D12*
X024795Y001767D02*
X024795Y001196D01*
X025081Y001196D01*
X025176Y001291D01*
X025176Y001481D01*
X025081Y001576D01*
X024795Y001576D01*
X024568Y001481D02*
X024568Y001291D01*
X024473Y001196D01*
X024283Y001196D01*
X024188Y001386D02*
X024568Y001386D01*
X024568Y001481D02*
X024473Y001576D01*
X024283Y001576D01*
X024188Y001481D01*
X024188Y001386D01*
X023353Y001576D02*
X023162Y001196D01*
X022972Y001576D01*
X022745Y001576D02*
X022555Y001767D01*
X022555Y001196D01*
X022745Y001196D02*
X022365Y001196D01*
X022137Y001196D02*
X022042Y001196D01*
X022042Y001291D01*
X022137Y001291D01*
X022137Y001196D01*
X021833Y001291D02*
X021453Y001672D01*
X021453Y001291D01*
X021548Y001196D01*
X021738Y001196D01*
X021833Y001291D01*
X021833Y001672D01*
X021738Y001767D01*
X021548Y001767D01*
X021453Y001672D01*
X025403Y001481D02*
X025403Y001291D01*
X025498Y001196D01*
X025688Y001196D01*
X025783Y001291D01*
X025783Y001481D01*
X025688Y001576D01*
X025498Y001576D01*
X025403Y001481D01*
X026011Y001196D02*
X026011Y001767D01*
X026391Y001767D02*
X026011Y001196D01*
X026391Y001196D02*
X026391Y001767D01*
X027226Y001576D02*
X027512Y001576D01*
X027607Y001481D01*
X027512Y001386D01*
X027321Y001386D01*
X027226Y001291D01*
X027321Y001196D01*
X027607Y001196D01*
X027834Y001291D02*
X027929Y001196D01*
X028214Y001196D01*
X028119Y001386D02*
X027929Y001386D01*
X027834Y001291D01*
X027834Y001576D02*
X028119Y001576D01*
X028214Y001481D01*
X028119Y001386D01*
X028442Y001386D02*
X028442Y001481D01*
X028537Y001576D01*
X028727Y001576D01*
X028822Y001481D01*
X028822Y001291D01*
X028727Y001196D01*
X028537Y001196D01*
X028442Y001386D02*
X028822Y001386D01*
X029049Y001196D02*
X029049Y001767D01*
X029240Y001576D01*
X029430Y001767D01*
X029430Y001196D01*
X029657Y001291D02*
X029657Y001672D01*
X029752Y001767D01*
X030037Y001767D01*
X030037Y001196D01*
X029752Y001196D01*
X029657Y001291D01*
X030265Y001196D02*
X030645Y001196D01*
X030645Y001767D01*
X030265Y001767D01*
X030455Y001481D02*
X030645Y001481D01*
X030873Y001196D02*
X031253Y001196D01*
X031253Y001767D01*
D13*
X026153Y006721D02*
X026003Y006571D01*
X026153Y006721D02*
X025703Y006721D01*
X025703Y006571D02*
X025703Y006871D01*
X025778Y007031D02*
X026078Y007332D01*
X025778Y007332D01*
X025703Y007257D01*
X025703Y007107D01*
X025778Y007031D01*
X026078Y007031D01*
X026153Y007107D01*
X026153Y007257D01*
X026078Y007332D01*
X026153Y007492D02*
X025703Y007492D01*
X025853Y007492D02*
X026003Y007717D01*
X025853Y007492D02*
X025703Y007717D01*
X025703Y009130D02*
X025703Y009430D01*
X025703Y009280D02*
X026153Y009280D01*
X026003Y009130D01*
X026078Y009591D02*
X025778Y009591D01*
X026078Y009891D01*
X025778Y009891D01*
X025703Y009816D01*
X025703Y009666D01*
X025778Y009591D01*
X026078Y009591D02*
X026153Y009666D01*
X026153Y009816D01*
X026078Y009891D01*
X026153Y010051D02*
X025703Y010051D01*
X025853Y010051D02*
X026003Y010276D01*
X025853Y010051D02*
X025703Y010276D01*
X025703Y011689D02*
X025703Y011989D01*
X025703Y011839D02*
X026153Y011839D01*
X026003Y011689D01*
X026078Y012150D02*
X025778Y012150D01*
X026078Y012450D01*
X025778Y012450D01*
X025703Y012375D01*
X025703Y012225D01*
X025778Y012150D01*
X026078Y012150D02*
X026153Y012225D01*
X026153Y012375D01*
X026078Y012450D01*
X026153Y012610D02*
X025703Y012610D01*
X025853Y012610D02*
X026003Y012835D01*
X025853Y012610D02*
X025703Y012835D01*
X022232Y011183D02*
X022232Y010958D01*
X021782Y010958D01*
X021932Y010958D02*
X021932Y011183D01*
X022007Y011258D01*
X022157Y011258D01*
X022232Y011183D01*
X021932Y011108D02*
X021782Y011258D01*
X021857Y010798D02*
X021782Y010723D01*
X021782Y010573D01*
X021857Y010498D01*
X022157Y010798D01*
X021857Y010798D01*
X022157Y010798D02*
X022232Y010723D01*
X022232Y010573D01*
X022157Y010498D01*
X021857Y010498D01*
X021782Y010338D02*
X021782Y010037D01*
X022082Y010338D01*
X022157Y010338D01*
X022232Y010263D01*
X022232Y010112D01*
X022157Y010037D01*
X022157Y009877D02*
X022232Y009802D01*
X022232Y009652D01*
X022157Y009577D01*
X022157Y009877D02*
X022082Y009877D01*
X021782Y009577D01*
X021782Y009877D01*
X022372Y009093D02*
X022522Y008943D01*
X022522Y009018D02*
X022522Y008793D01*
X022372Y008793D02*
X022823Y008793D01*
X022823Y009018D01*
X022748Y009093D01*
X022597Y009093D01*
X022522Y009018D01*
X022447Y008633D02*
X022372Y008558D01*
X022372Y008407D01*
X022447Y008332D01*
X022748Y008633D01*
X022447Y008633D01*
X022748Y008633D02*
X022823Y008558D01*
X022823Y008407D01*
X022748Y008332D01*
X022447Y008332D01*
X022372Y008172D02*
X022372Y007872D01*
X022673Y008172D01*
X022748Y008172D01*
X022823Y008097D01*
X022823Y007947D01*
X022748Y007872D01*
X022748Y007712D02*
X022823Y007637D01*
X022823Y007487D01*
X022748Y007412D01*
X022673Y007712D02*
X022372Y007412D01*
X022372Y007712D01*
X022673Y007712D02*
X022748Y007712D01*
X016327Y008152D02*
X016176Y008002D01*
X016327Y008152D02*
X015876Y008152D01*
X015876Y008002D02*
X015876Y008302D01*
X015951Y008463D02*
X016252Y008763D01*
X015951Y008763D01*
X015876Y008688D01*
X015876Y008538D01*
X015951Y008463D01*
X016252Y008463D01*
X016327Y008538D01*
X016327Y008688D01*
X016252Y008763D01*
X016327Y008923D02*
X015876Y008923D01*
X016026Y008923D02*
X016176Y009148D01*
X016026Y008923D02*
X015876Y009148D01*
X015876Y009774D02*
X015876Y010074D01*
X015876Y009924D02*
X016327Y009924D01*
X016176Y009774D01*
X016252Y010234D02*
X015951Y010234D01*
X016252Y010534D01*
X015951Y010534D01*
X015876Y010459D01*
X015876Y010309D01*
X015951Y010234D01*
X016252Y010234D02*
X016327Y010309D01*
X016327Y010459D01*
X016252Y010534D01*
X016327Y010695D02*
X015876Y010695D01*
X016026Y010695D02*
X015876Y010920D01*
X016026Y010695D02*
X016176Y010920D01*
X011002Y011455D02*
X010702Y011455D01*
X010852Y011455D02*
X010852Y011905D01*
X011002Y011755D01*
X010542Y011830D02*
X010542Y011530D01*
X010241Y011830D01*
X010241Y011530D01*
X010316Y011455D01*
X010466Y011455D01*
X010542Y011530D01*
X010081Y011530D02*
X009781Y011830D01*
X009781Y011530D01*
X009856Y011455D01*
X010006Y011455D01*
X010081Y011530D01*
X010081Y011830D01*
X010006Y011905D01*
X009856Y011905D01*
X009781Y011830D01*
X010241Y011830D02*
X010316Y011905D01*
X010466Y011905D01*
X010542Y011830D01*
X009160Y011755D02*
X009160Y011455D01*
X008860Y011455D02*
X008860Y011680D01*
X008935Y011755D01*
X009160Y011755D01*
X008700Y011680D02*
X008550Y011680D01*
X008700Y011455D02*
X008700Y011905D01*
X008400Y011905D01*
X008673Y010799D02*
X008973Y010799D01*
X008973Y010349D01*
X009133Y010349D02*
X009133Y010649D01*
X008973Y010574D02*
X008823Y010574D01*
X009133Y010349D02*
X009358Y010349D01*
X009433Y010424D01*
X009433Y010649D01*
X010054Y010724D02*
X010354Y010424D01*
X010279Y010349D01*
X010129Y010349D01*
X010054Y010424D01*
X010054Y010724D01*
X010129Y010799D01*
X010279Y010799D01*
X010354Y010724D01*
X010354Y010424D01*
X010514Y010349D02*
X010814Y010349D01*
X010664Y010349D02*
X010664Y010799D01*
X010814Y010649D01*
X006468Y011314D02*
X006018Y011314D01*
X006018Y011164D02*
X006018Y011464D01*
X006093Y011624D02*
X006393Y011924D01*
X006093Y011924D01*
X006018Y011849D01*
X006018Y011699D01*
X006093Y011624D01*
X006393Y011624D01*
X006468Y011699D01*
X006468Y011849D01*
X006393Y011924D01*
X006468Y011314D02*
X006318Y011164D01*
X005090Y011274D02*
X004940Y011124D01*
X005090Y011274D02*
X004640Y011274D01*
X004640Y011124D02*
X004640Y011424D01*
X004715Y011585D02*
X005015Y011885D01*
X004715Y011885D01*
X004640Y011810D01*
X004640Y011660D01*
X004715Y011585D01*
X005015Y011585D01*
X005090Y011660D01*
X005090Y011810D01*
X005015Y011885D01*
X005015Y012045D02*
X004715Y012045D01*
X005015Y012345D01*
X004715Y012345D01*
X004640Y012270D01*
X004640Y012120D01*
X004715Y012045D01*
X005015Y012045D02*
X005090Y012120D01*
X005090Y012270D01*
X005015Y012345D01*
X004940Y012966D02*
X004640Y012966D01*
X004940Y012966D02*
X004940Y013191D01*
X004865Y013266D01*
X004640Y013266D01*
X004640Y013426D02*
X005090Y013426D01*
X005090Y013726D01*
X004865Y013576D02*
X004865Y013426D01*
X006018Y013005D02*
X006468Y013005D01*
X006468Y013305D01*
X006243Y013155D02*
X006243Y013005D01*
X006318Y012845D02*
X006018Y012845D01*
X006018Y012620D01*
X006093Y012545D01*
X006318Y012545D01*
X009734Y001706D02*
X009734Y001256D01*
X009959Y001256D01*
X010034Y001331D01*
X010034Y001481D01*
X009959Y001556D01*
X009734Y001556D01*
X009574Y001556D02*
X009574Y001256D01*
X009424Y001256D02*
X009424Y001481D01*
X009349Y001556D01*
X009274Y001481D01*
X009274Y001256D01*
X009114Y001331D02*
X009114Y001481D01*
X009039Y001556D01*
X008888Y001556D01*
X008813Y001481D01*
X008813Y001406D01*
X009114Y001406D01*
X009114Y001331D02*
X009039Y001256D01*
X008888Y001256D01*
X008653Y001256D02*
X008428Y001256D01*
X008353Y001331D01*
X008428Y001406D01*
X008578Y001406D01*
X008653Y001481D01*
X008578Y001556D01*
X008353Y001556D01*
X008193Y001481D02*
X008118Y001556D01*
X007893Y001556D01*
X007968Y001406D02*
X008118Y001406D01*
X008193Y001481D01*
X008193Y001256D02*
X007968Y001256D01*
X007893Y001331D01*
X007968Y001406D01*
X009424Y001481D02*
X009499Y001556D01*
X009574Y001556D01*
X010194Y001481D02*
X010194Y001406D01*
X010495Y001406D01*
X010495Y001331D02*
X010495Y001481D01*
X010420Y001556D01*
X010270Y001556D01*
X010194Y001481D01*
X010270Y001256D02*
X010420Y001256D01*
X010495Y001331D01*
X010652Y001256D02*
X010802Y001256D01*
X010727Y001256D02*
X010727Y001706D01*
X010802Y001706D01*
X010962Y001706D02*
X011262Y001256D01*
X011422Y001256D02*
X011422Y001481D01*
X011497Y001556D01*
X011722Y001556D01*
X011722Y001256D01*
X011881Y001556D02*
X011956Y001556D01*
X012106Y001406D01*
X012106Y001256D02*
X012106Y001556D01*
X012266Y001481D02*
X012341Y001556D01*
X012491Y001556D01*
X012567Y001481D01*
X012567Y001331D01*
X012491Y001256D01*
X012341Y001256D01*
X012266Y001331D01*
X012266Y001481D01*
X012727Y001556D02*
X013027Y001256D01*
X012727Y001256D01*
X012727Y001556D02*
X013027Y001556D01*
X013187Y001556D02*
X013487Y001256D01*
X013187Y001256D01*
X013187Y001556D02*
X013487Y001556D01*
X013647Y001706D02*
X013948Y001256D01*
X014108Y001256D02*
X014108Y001481D01*
X014183Y001556D01*
X014258Y001481D01*
X014258Y001256D01*
X014408Y001256D02*
X014408Y001556D01*
X014333Y001556D01*
X014258Y001481D01*
X014568Y001481D02*
X014568Y001331D01*
X014643Y001256D01*
X014793Y001256D01*
X014868Y001331D01*
X014868Y001481D01*
X014793Y001556D01*
X014643Y001556D01*
X014568Y001481D01*
X015029Y001556D02*
X015254Y001556D01*
X015329Y001481D01*
X015329Y001331D01*
X015254Y001256D01*
X015029Y001256D01*
X015484Y001256D02*
X015559Y001256D01*
X015559Y001331D01*
X015484Y001331D01*
X015484Y001256D01*
X015719Y001331D02*
X015719Y001481D01*
X015794Y001556D01*
X016019Y001556D01*
X016019Y001706D02*
X016019Y001256D01*
X015794Y001256D01*
X015719Y001331D01*
X016180Y001256D02*
X016180Y001556D01*
X016480Y001556D02*
X016480Y001331D01*
X016405Y001256D01*
X016180Y001256D01*
X016640Y001256D02*
X016640Y001481D01*
X016715Y001556D01*
X016865Y001556D01*
X016940Y001481D01*
X017097Y001556D02*
X017247Y001556D01*
X017172Y001631D02*
X017172Y001331D01*
X017097Y001256D01*
X016940Y001256D02*
X016940Y001706D01*
X017479Y001706D02*
X017479Y001782D01*
X017479Y001556D02*
X017479Y001256D01*
X017554Y001256D02*
X017404Y001256D01*
X017479Y001556D02*
X017554Y001556D01*
X017714Y001556D02*
X017939Y001556D01*
X018014Y001481D01*
X018014Y001331D01*
X017939Y001256D01*
X017714Y001256D01*
X017714Y001181D02*
X017714Y001556D01*
X017714Y001181D02*
X017789Y001106D01*
X017864Y001106D01*
X031412Y007896D02*
X031412Y008196D01*
X031412Y008046D02*
X031862Y008046D01*
X031712Y007896D01*
X031787Y008356D02*
X031487Y008356D01*
X031787Y008657D01*
X031487Y008657D01*
X031412Y008581D01*
X031412Y008431D01*
X031487Y008356D01*
X031787Y008356D02*
X031862Y008431D01*
X031862Y008581D01*
X031787Y008657D01*
X031787Y008817D02*
X031487Y008817D01*
X031787Y009117D01*
X031487Y009117D01*
X031412Y009042D01*
X031412Y008892D01*
X031487Y008817D01*
X031787Y008817D02*
X031862Y008892D01*
X031862Y009042D01*
X031787Y009117D01*
X031712Y009737D02*
X031412Y009737D01*
X031712Y009737D02*
X031712Y009963D01*
X031637Y010038D01*
X031412Y010038D01*
X031412Y010198D02*
X031862Y010198D01*
X031862Y010498D01*
X031637Y010348D02*
X031637Y010198D01*
X034955Y010131D02*
X035405Y010131D01*
X035405Y010431D01*
X035180Y010281D02*
X035180Y010131D01*
X035255Y009971D02*
X034955Y009971D01*
X034955Y009746D01*
X035030Y009671D01*
X035255Y009671D01*
X035330Y009050D02*
X035030Y009050D01*
X034955Y008975D01*
X034955Y008825D01*
X035030Y008750D01*
X035330Y009050D01*
X035405Y008975D01*
X035405Y008825D01*
X035330Y008750D01*
X035030Y008750D01*
X034955Y008590D02*
X034955Y008290D01*
X034955Y008440D02*
X035405Y008440D01*
X035255Y008290D01*
D14*
X028684Y005872D02*
X028684Y005632D01*
X028684Y005812D02*
X028443Y005812D01*
X028443Y005872D02*
X028443Y005632D01*
X028315Y005692D02*
X028255Y005632D01*
X028135Y005632D01*
X028075Y005692D01*
X028075Y005932D01*
X028135Y005992D01*
X028255Y005992D01*
X028315Y005932D01*
X028315Y005692D01*
X028443Y005872D02*
X028563Y005992D01*
X028684Y005872D01*
X027947Y005932D02*
X027887Y005992D01*
X027767Y005992D01*
X027707Y005932D01*
X027707Y005872D01*
X027767Y005812D01*
X027707Y005752D01*
X027707Y005692D01*
X027767Y005632D01*
X027887Y005632D01*
X027947Y005692D01*
X027827Y005812D02*
X027767Y005812D01*
X027579Y005812D02*
X027398Y005992D01*
X027398Y005632D01*
X027338Y005812D02*
X027579Y005812D01*
X027210Y005692D02*
X027210Y005932D01*
X027150Y005992D01*
X027030Y005992D01*
X026970Y005932D01*
X027210Y005692D01*
X027150Y005632D01*
X027030Y005632D01*
X026970Y005692D01*
X026970Y005932D01*
X026842Y005932D02*
X026782Y005992D01*
X026662Y005992D01*
X026602Y005932D01*
X026602Y005872D01*
X026842Y005632D01*
X026602Y005632D01*
X023762Y005632D02*
X023762Y005872D01*
X023642Y005992D01*
X023522Y005872D01*
X023522Y005632D01*
X023394Y005692D02*
X023334Y005632D01*
X023214Y005632D01*
X023154Y005692D01*
X023154Y005932D01*
X023214Y005992D01*
X023334Y005992D01*
X023394Y005932D01*
X023394Y005692D01*
X023522Y005812D02*
X023762Y005812D01*
X023026Y005932D02*
X022966Y005992D01*
X022846Y005992D01*
X022785Y005932D01*
X022785Y005872D01*
X022846Y005812D01*
X022785Y005752D01*
X022785Y005692D01*
X022846Y005632D01*
X022966Y005632D01*
X023026Y005692D01*
X022906Y005812D02*
X022846Y005812D01*
X022657Y005812D02*
X022477Y005992D01*
X022477Y005632D01*
X022417Y005812D02*
X022657Y005812D01*
X022289Y005932D02*
X022229Y005992D01*
X022109Y005992D01*
X022049Y005932D01*
X022289Y005692D01*
X022229Y005632D01*
X022109Y005632D01*
X022049Y005692D01*
X022049Y005932D01*
X021921Y005932D02*
X021861Y005992D01*
X021741Y005992D01*
X021681Y005932D01*
X021681Y005872D01*
X021921Y005632D01*
X021681Y005632D01*
X022289Y005692D02*
X022289Y005932D01*
X013476Y008845D02*
X013416Y008785D01*
X013175Y008785D01*
X013115Y008845D01*
X013115Y008965D01*
X013175Y009025D01*
X013295Y009025D01*
X013295Y008905D01*
X013416Y009025D02*
X013476Y008965D01*
X013476Y008845D01*
X013476Y009153D02*
X013115Y009153D01*
X013115Y009393D02*
X013476Y009393D01*
X013476Y009521D02*
X013476Y009701D01*
X013416Y009761D01*
X013175Y009761D01*
X013115Y009701D01*
X013115Y009521D01*
X013476Y009521D01*
X013476Y009153D02*
X013115Y009393D01*
X012491Y009333D02*
X012491Y009213D01*
X012431Y009153D01*
X012371Y009153D01*
X012311Y009213D01*
X012311Y009333D01*
X012251Y009393D01*
X012191Y009393D01*
X012131Y009333D01*
X012131Y009213D01*
X012191Y009153D01*
X012131Y009025D02*
X012251Y008905D01*
X012251Y008965D02*
X012251Y008785D01*
X012131Y008785D02*
X012491Y008785D01*
X012491Y008965D01*
X012431Y009025D01*
X012311Y009025D01*
X012251Y008965D01*
X012491Y009333D02*
X012431Y009393D01*
X012491Y009521D02*
X012491Y009761D01*
X012491Y009641D02*
X012131Y009641D01*
X011507Y009641D02*
X011507Y009521D01*
X011507Y009581D02*
X011147Y009581D01*
X011147Y009521D02*
X011147Y009641D01*
X011147Y009393D02*
X011507Y009153D01*
X011447Y009025D02*
X011327Y009025D01*
X011267Y008965D01*
X011267Y008785D01*
X011267Y008905D02*
X011147Y009025D01*
X011147Y009153D02*
X011507Y009393D01*
X011447Y009025D02*
X011507Y008965D01*
X011507Y008785D01*
X011147Y008785D01*
X010523Y008785D02*
X010523Y009025D01*
X010523Y008905D02*
X010163Y008905D01*
X010163Y009153D02*
X010523Y009393D01*
X010463Y009521D02*
X010223Y009521D01*
X010163Y009581D01*
X010163Y009701D01*
X010223Y009761D01*
X010463Y009761D01*
X010523Y009701D01*
X010523Y009581D01*
X010463Y009521D01*
X010163Y009393D02*
X010523Y009153D01*
X010615Y005992D02*
X010555Y005932D01*
X010555Y005692D01*
X010615Y005632D01*
X010736Y005632D01*
X010796Y005692D01*
X010796Y005932D01*
X010736Y005992D01*
X010615Y005992D01*
X010427Y005932D02*
X010367Y005992D01*
X010247Y005992D01*
X010187Y005932D01*
X010187Y005872D01*
X010247Y005812D01*
X010187Y005752D01*
X010187Y005692D01*
X010247Y005632D01*
X010367Y005632D01*
X010427Y005692D01*
X010307Y005812D02*
X010247Y005812D01*
X010059Y005812D02*
X009819Y005812D01*
X009691Y005692D02*
X009691Y005932D01*
X009631Y005992D01*
X009510Y005992D01*
X009450Y005932D01*
X009691Y005692D01*
X009631Y005632D01*
X009510Y005632D01*
X009450Y005692D01*
X009450Y005932D01*
X009322Y005932D02*
X009262Y005992D01*
X009142Y005992D01*
X009082Y005932D01*
X009082Y005872D01*
X009322Y005632D01*
X009082Y005632D01*
X009879Y005632D02*
X009879Y005992D01*
X010059Y005812D01*
X010924Y005812D02*
X011164Y005812D01*
X011164Y005872D02*
X011044Y005992D01*
X010924Y005872D01*
X010924Y005632D01*
X011164Y005632D02*
X011164Y005872D01*
X011212Y014293D02*
X011152Y014353D01*
X011152Y014593D01*
X011393Y014353D01*
X011333Y014293D01*
X011212Y014293D01*
X011024Y014293D02*
X010784Y014533D01*
X010784Y014593D01*
X010844Y014654D01*
X010964Y014654D01*
X011024Y014593D01*
X011152Y014593D02*
X011212Y014654D01*
X011333Y014654D01*
X011393Y014593D01*
X011393Y014353D01*
X011521Y014473D02*
X011761Y014473D01*
X011581Y014654D01*
X011581Y014293D01*
X011889Y014353D02*
X011889Y014413D01*
X011949Y014473D01*
X012009Y014473D01*
X011949Y014473D02*
X011889Y014533D01*
X011889Y014593D01*
X011949Y014654D01*
X012069Y014654D01*
X012129Y014593D01*
X012257Y014593D02*
X012317Y014654D01*
X012437Y014654D01*
X012498Y014593D01*
X012498Y014353D01*
X012437Y014293D01*
X012317Y014293D01*
X012257Y014353D01*
X012257Y014593D01*
X012129Y014353D02*
X012069Y014293D01*
X011949Y014293D01*
X011889Y014353D01*
X012626Y014293D02*
X012626Y014533D01*
X012746Y014654D01*
X012866Y014533D01*
X012866Y014293D01*
X012866Y014473D02*
X012626Y014473D01*
X011024Y014293D02*
X010784Y014293D01*
X023776Y014293D02*
X024016Y014293D01*
X023776Y014533D01*
X023776Y014593D01*
X023836Y014654D01*
X023956Y014654D01*
X024016Y014593D01*
X024144Y014593D02*
X024385Y014353D01*
X024325Y014293D01*
X024205Y014293D01*
X024144Y014353D01*
X024144Y014593D01*
X024205Y014654D01*
X024325Y014654D01*
X024385Y014593D01*
X024385Y014353D01*
X024513Y014473D02*
X024753Y014473D01*
X024573Y014654D01*
X024573Y014293D01*
X024881Y014353D02*
X024881Y014413D01*
X024941Y014473D01*
X025001Y014473D01*
X024941Y014473D02*
X024881Y014533D01*
X024881Y014593D01*
X024941Y014654D01*
X025061Y014654D01*
X025121Y014593D01*
X025249Y014593D02*
X025249Y014353D01*
X025309Y014293D01*
X025430Y014293D01*
X025490Y014353D01*
X025490Y014593D01*
X025430Y014654D01*
X025309Y014654D01*
X025249Y014593D01*
X025121Y014353D02*
X025061Y014293D01*
X024941Y014293D01*
X024881Y014353D01*
X025618Y014293D02*
X025618Y014533D01*
X025738Y014654D01*
X025858Y014533D01*
X025858Y014293D01*
X025858Y014473D02*
X025618Y014473D01*
X028697Y014533D02*
X028697Y014593D01*
X028757Y014654D01*
X028878Y014654D01*
X028938Y014593D01*
X029066Y014593D02*
X029306Y014353D01*
X029246Y014293D01*
X029126Y014293D01*
X029066Y014353D01*
X029066Y014593D01*
X029126Y014654D01*
X029246Y014654D01*
X029306Y014593D01*
X029306Y014353D01*
X029434Y014473D02*
X029674Y014473D01*
X029494Y014654D01*
X029494Y014293D01*
X029802Y014353D02*
X029802Y014413D01*
X029862Y014473D01*
X029922Y014473D01*
X029862Y014473D02*
X029802Y014533D01*
X029802Y014593D01*
X029862Y014654D01*
X029983Y014654D01*
X030043Y014593D01*
X030171Y014593D02*
X030231Y014654D01*
X030351Y014654D01*
X030411Y014593D01*
X030411Y014353D01*
X030351Y014293D01*
X030231Y014293D01*
X030171Y014353D01*
X030171Y014593D01*
X030043Y014353D02*
X029983Y014293D01*
X029862Y014293D01*
X029802Y014353D01*
X030539Y014293D02*
X030539Y014533D01*
X030659Y014654D01*
X030779Y014533D01*
X030779Y014293D01*
X030779Y014473D02*
X030539Y014473D01*
X028938Y014293D02*
X028697Y014533D01*
X028697Y014293D02*
X028938Y014293D01*
D15*
X029711Y015394D02*
X029949Y015394D01*
X029209Y015497D02*
X029209Y015914D01*
X030447Y015914D02*
X030447Y015497D01*
X025525Y015497D02*
X025525Y015914D01*
X025028Y015394D02*
X024790Y015394D01*
X024287Y015497D02*
X024287Y015914D01*
X012533Y015914D02*
X012533Y015497D01*
X012036Y015394D02*
X011798Y015394D01*
X011295Y015497D02*
X011295Y015914D01*
X010062Y004891D02*
X009824Y004891D01*
X009327Y004788D02*
X009327Y004371D01*
X010565Y004371D02*
X010565Y004788D01*
X022122Y004788D02*
X022122Y004371D01*
X022619Y004891D02*
X022857Y004891D01*
X023360Y004788D02*
X023360Y004371D01*
X027043Y004371D02*
X027043Y004788D01*
X027540Y004891D02*
X027779Y004891D01*
X028281Y004788D02*
X028281Y004371D01*
D16*
X023725Y008902D03*
X023135Y011265D03*
X014867Y011068D03*
X014867Y009296D03*
D17*
X014867Y009552D03*
X014867Y007780D03*
X023135Y009749D03*
X023725Y007387D03*
D18*
X023469Y007426D03*
X023981Y007426D03*
X023391Y009788D03*
X022879Y009788D03*
X015123Y009591D03*
X014611Y009591D03*
X014611Y007820D03*
X015123Y007820D03*
D19*
X019562Y001891D02*
X019532Y001731D01*
X019412Y001681D01*
X019272Y001771D01*
X019182Y001681D01*
X019272Y001551D01*
X019222Y001431D01*
X019072Y001401D01*
X019072Y001271D01*
X019212Y001241D01*
X019272Y001111D01*
X019182Y000981D01*
X019272Y000891D01*
X019392Y000971D01*
X019452Y000941D01*
X019542Y001171D01*
X019702Y001171D02*
X019802Y000941D01*
X019852Y000971D01*
X019972Y000891D01*
X020062Y000981D01*
X019982Y001111D01*
X020032Y001241D01*
X020182Y001271D01*
X020182Y001401D01*
X020032Y001421D01*
X019972Y001551D01*
X020062Y001681D01*
X019972Y001771D01*
X019842Y001681D01*
X019722Y001731D01*
X019692Y001891D01*
X019562Y001891D01*
X019542Y001171D02*
X019520Y001184D01*
X019500Y001200D01*
X019482Y001219D01*
X019467Y001241D01*
X019456Y001264D01*
X019448Y001289D01*
X019444Y001314D01*
X019443Y001340D01*
X019446Y001366D01*
X019453Y001391D01*
X019464Y001414D01*
X019477Y001436D01*
X019494Y001456D01*
X019513Y001473D01*
X019535Y001488D01*
X019559Y001498D01*
X019583Y001506D01*
X019609Y001510D01*
X019635Y001510D01*
X019661Y001506D01*
X019685Y001498D01*
X019709Y001488D01*
X019731Y001473D01*
X019750Y001456D01*
X019767Y001436D01*
X019780Y001414D01*
X019791Y001391D01*
X019798Y001366D01*
X019801Y001340D01*
X019800Y001314D01*
X019796Y001289D01*
X019788Y001264D01*
X019777Y001241D01*
X019762Y001219D01*
X019744Y001200D01*
X019724Y001184D01*
X019702Y001171D01*
M02*
