%
M48
M72
T01C0.0236
T02C0.0315
T03C0.0320
T04C0.0400
T05C0.0440
T06C0.0512
T07C0.1260
%
T01
X8765Y4434
X8765Y5024
X8765Y5615
X15064Y6206
X16835Y7977
X17623Y8371
X18213Y8765
X16442Y10143
X16835Y11324
X17426Y11717
X20772Y11127
X21560Y10536
X23331Y11914
X23725Y13489
X18213Y14080
X24119Y9946
X25497Y8961
X21166Y6402
X19001Y6402
X7190Y12308
X6796Y11520
X3450Y12308
X3450Y13489
X8174Y13883
X33371Y7190
T02
X29828Y10733
X28253Y10733
T03
X5631Y8206
X7031Y8206
X27934Y12898
X30934Y12898
X32671Y11324
X34071Y11324
T04
X21654Y7143
X20654Y7143
X19654Y7143
X18654Y7143
X17654Y7143
X16654Y7143
X15654Y7143
X14654Y7143
X13654Y7143
X12654Y7143
X11654Y7143
X10654Y7143
X10316Y8300
X11316Y8300
X12316Y8300
X13316Y8300
X14092Y12018
X15092Y12018
X14654Y13143
X13654Y13143
X12654Y13143
X11654Y13143
X10654Y13143
X15654Y13143
X16654Y13143
X17654Y13143
X18654Y13143
X19654Y13143
X20654Y13143
X21654Y13143
X19217Y12018
X18217Y12018
X32158Y15261
X33158Y15261
X34158Y15261
X36914Y14308
X36914Y13308
X36914Y12308
X34158Y17229
X33158Y17229
X32158Y17229
X1087Y15457
X1087Y14457
X1087Y13457
X1087Y12457
T05
X4993Y3056
X5993Y3056
X6993Y3056
X6993Y5418
X5993Y5418
X4993Y5418
X5024Y14867
X6024Y14867
X7024Y14867
X7024Y17229
X6024Y17229
X5024Y17229
X32552Y5418
X33552Y5418
X34552Y5418
X34552Y3056
X33552Y3056
X32552Y3056
T06
X36914Y5418
X36914Y7387
X36914Y9355
X30103Y7387
X28253Y7387
X27859Y3056
X29828Y3056
X24709Y3056
X22741Y3056
X19198Y3056
X17229Y3056
X15261Y3056
X11717Y3056
X9749Y3056
X2662Y5418
X2662Y7387
X2662Y9355
X9749Y17229
X11717Y17229
X15261Y17229
X17229Y17229
X19198Y17229
X22741Y17229
X24709Y17229
X27859Y17229
X29828Y17229
T07
X37702Y18017
X2269Y18017
X2269Y2269
X37702Y2269
M30
