G75*
%MOIN*%
%OFA0B0*%
%FSLAX24Y24*%
%IPPOS*%
%LPD*%
%AMOC8*
5,1,8,0,0,1.08239X$1,22.5*
%
%ADD10C,0.0000*%
%ADD11C,0.1300*%
%ADD12C,0.0780*%
%ADD13C,0.0780*%
%ADD14OC8,0.0670*%
%ADD15C,0.0670*%
%ADD16C,0.0700*%
%ADD17R,0.0990X0.0990*%
%ADD18C,0.0990*%
%ADD19R,0.0840X0.0840*%
%ADD20C,0.0840*%
%ADD21C,0.0808*%
%ADD22R,0.0780X0.0780*%
D10*
X002269Y000300D02*
X037623Y000300D01*
X037709Y000302D01*
X037795Y000307D01*
X037880Y000317D01*
X037965Y000330D01*
X038049Y000347D01*
X038133Y000367D01*
X038215Y000391D01*
X038296Y000419D01*
X038377Y000450D01*
X038455Y000484D01*
X038532Y000522D01*
X038608Y000564D01*
X038681Y000608D01*
X038752Y000656D01*
X038822Y000707D01*
X038889Y000761D01*
X038953Y000817D01*
X039015Y000877D01*
X039075Y000939D01*
X039131Y001003D01*
X039185Y001070D01*
X039236Y001140D01*
X039284Y001211D01*
X039328Y001284D01*
X039370Y001360D01*
X039408Y001437D01*
X039442Y001515D01*
X039473Y001596D01*
X039501Y001677D01*
X039525Y001759D01*
X039545Y001843D01*
X039562Y001927D01*
X039575Y002012D01*
X039585Y002097D01*
X039590Y002183D01*
X039592Y002269D01*
X039591Y002269D02*
X039591Y017938D01*
X037072Y018017D02*
X037074Y018067D01*
X037080Y018117D01*
X037090Y018166D01*
X037104Y018214D01*
X037121Y018261D01*
X037142Y018306D01*
X037167Y018350D01*
X037195Y018391D01*
X037227Y018430D01*
X037261Y018467D01*
X037298Y018501D01*
X037338Y018531D01*
X037380Y018558D01*
X037424Y018582D01*
X037470Y018603D01*
X037517Y018619D01*
X037565Y018632D01*
X037615Y018641D01*
X037664Y018646D01*
X037715Y018647D01*
X037765Y018644D01*
X037814Y018637D01*
X037863Y018626D01*
X037911Y018611D01*
X037957Y018593D01*
X038002Y018571D01*
X038045Y018545D01*
X038086Y018516D01*
X038125Y018484D01*
X038161Y018449D01*
X038193Y018411D01*
X038223Y018371D01*
X038250Y018328D01*
X038273Y018284D01*
X038292Y018238D01*
X038308Y018190D01*
X038320Y018141D01*
X038328Y018092D01*
X038332Y018042D01*
X038332Y017992D01*
X038328Y017942D01*
X038320Y017893D01*
X038308Y017844D01*
X038292Y017796D01*
X038273Y017750D01*
X038250Y017706D01*
X038223Y017663D01*
X038193Y017623D01*
X038161Y017585D01*
X038125Y017550D01*
X038086Y017518D01*
X038045Y017489D01*
X038002Y017463D01*
X037957Y017441D01*
X037911Y017423D01*
X037863Y017408D01*
X037814Y017397D01*
X037765Y017390D01*
X037715Y017387D01*
X037664Y017388D01*
X037615Y017393D01*
X037565Y017402D01*
X037517Y017415D01*
X037470Y017431D01*
X037424Y017452D01*
X037380Y017476D01*
X037338Y017503D01*
X037298Y017533D01*
X037261Y017567D01*
X037227Y017604D01*
X037195Y017643D01*
X037167Y017684D01*
X037142Y017728D01*
X037121Y017773D01*
X037104Y017820D01*
X037090Y017868D01*
X037080Y017917D01*
X037074Y017967D01*
X037072Y018017D01*
X037623Y019907D02*
X037709Y019905D01*
X037795Y019900D01*
X037880Y019890D01*
X037965Y019877D01*
X038049Y019860D01*
X038133Y019840D01*
X038215Y019816D01*
X038296Y019788D01*
X038377Y019757D01*
X038455Y019723D01*
X038532Y019685D01*
X038608Y019643D01*
X038681Y019599D01*
X038752Y019551D01*
X038822Y019500D01*
X038889Y019446D01*
X038953Y019390D01*
X039015Y019330D01*
X039075Y019268D01*
X039131Y019204D01*
X039185Y019137D01*
X039236Y019067D01*
X039284Y018996D01*
X039328Y018923D01*
X039370Y018847D01*
X039408Y018770D01*
X039442Y018692D01*
X039473Y018611D01*
X039501Y018530D01*
X039525Y018448D01*
X039545Y018364D01*
X039562Y018280D01*
X039575Y018195D01*
X039585Y018110D01*
X039590Y018024D01*
X039592Y017938D01*
X037623Y019906D02*
X002269Y019906D01*
X001639Y018017D02*
X001641Y018067D01*
X001647Y018117D01*
X001657Y018166D01*
X001671Y018214D01*
X001688Y018261D01*
X001709Y018306D01*
X001734Y018350D01*
X001762Y018391D01*
X001794Y018430D01*
X001828Y018467D01*
X001865Y018501D01*
X001905Y018531D01*
X001947Y018558D01*
X001991Y018582D01*
X002037Y018603D01*
X002084Y018619D01*
X002132Y018632D01*
X002182Y018641D01*
X002231Y018646D01*
X002282Y018647D01*
X002332Y018644D01*
X002381Y018637D01*
X002430Y018626D01*
X002478Y018611D01*
X002524Y018593D01*
X002569Y018571D01*
X002612Y018545D01*
X002653Y018516D01*
X002692Y018484D01*
X002728Y018449D01*
X002760Y018411D01*
X002790Y018371D01*
X002817Y018328D01*
X002840Y018284D01*
X002859Y018238D01*
X002875Y018190D01*
X002887Y018141D01*
X002895Y018092D01*
X002899Y018042D01*
X002899Y017992D01*
X002895Y017942D01*
X002887Y017893D01*
X002875Y017844D01*
X002859Y017796D01*
X002840Y017750D01*
X002817Y017706D01*
X002790Y017663D01*
X002760Y017623D01*
X002728Y017585D01*
X002692Y017550D01*
X002653Y017518D01*
X002612Y017489D01*
X002569Y017463D01*
X002524Y017441D01*
X002478Y017423D01*
X002430Y017408D01*
X002381Y017397D01*
X002332Y017390D01*
X002282Y017387D01*
X002231Y017388D01*
X002182Y017393D01*
X002132Y017402D01*
X002084Y017415D01*
X002037Y017431D01*
X001991Y017452D01*
X001947Y017476D01*
X001905Y017503D01*
X001865Y017533D01*
X001828Y017567D01*
X001794Y017604D01*
X001762Y017643D01*
X001734Y017684D01*
X001709Y017728D01*
X001688Y017773D01*
X001671Y017820D01*
X001657Y017868D01*
X001647Y017917D01*
X001641Y017967D01*
X001639Y018017D01*
X000300Y017938D02*
X000302Y018024D01*
X000307Y018110D01*
X000317Y018195D01*
X000330Y018280D01*
X000347Y018364D01*
X000367Y018448D01*
X000391Y018530D01*
X000419Y018611D01*
X000450Y018692D01*
X000484Y018770D01*
X000522Y018847D01*
X000564Y018923D01*
X000608Y018996D01*
X000656Y019067D01*
X000707Y019137D01*
X000761Y019204D01*
X000817Y019268D01*
X000877Y019330D01*
X000939Y019390D01*
X001003Y019446D01*
X001070Y019500D01*
X001140Y019551D01*
X001211Y019599D01*
X001285Y019643D01*
X001360Y019685D01*
X001437Y019723D01*
X001515Y019757D01*
X001596Y019788D01*
X001677Y019816D01*
X001759Y019840D01*
X001843Y019860D01*
X001927Y019877D01*
X002012Y019890D01*
X002097Y019900D01*
X002183Y019905D01*
X002269Y019907D01*
X000300Y017938D02*
X000300Y002269D01*
X001639Y002269D02*
X001641Y002319D01*
X001647Y002369D01*
X001657Y002418D01*
X001671Y002466D01*
X001688Y002513D01*
X001709Y002558D01*
X001734Y002602D01*
X001762Y002643D01*
X001794Y002682D01*
X001828Y002719D01*
X001865Y002753D01*
X001905Y002783D01*
X001947Y002810D01*
X001991Y002834D01*
X002037Y002855D01*
X002084Y002871D01*
X002132Y002884D01*
X002182Y002893D01*
X002231Y002898D01*
X002282Y002899D01*
X002332Y002896D01*
X002381Y002889D01*
X002430Y002878D01*
X002478Y002863D01*
X002524Y002845D01*
X002569Y002823D01*
X002612Y002797D01*
X002653Y002768D01*
X002692Y002736D01*
X002728Y002701D01*
X002760Y002663D01*
X002790Y002623D01*
X002817Y002580D01*
X002840Y002536D01*
X002859Y002490D01*
X002875Y002442D01*
X002887Y002393D01*
X002895Y002344D01*
X002899Y002294D01*
X002899Y002244D01*
X002895Y002194D01*
X002887Y002145D01*
X002875Y002096D01*
X002859Y002048D01*
X002840Y002002D01*
X002817Y001958D01*
X002790Y001915D01*
X002760Y001875D01*
X002728Y001837D01*
X002692Y001802D01*
X002653Y001770D01*
X002612Y001741D01*
X002569Y001715D01*
X002524Y001693D01*
X002478Y001675D01*
X002430Y001660D01*
X002381Y001649D01*
X002332Y001642D01*
X002282Y001639D01*
X002231Y001640D01*
X002182Y001645D01*
X002132Y001654D01*
X002084Y001667D01*
X002037Y001683D01*
X001991Y001704D01*
X001947Y001728D01*
X001905Y001755D01*
X001865Y001785D01*
X001828Y001819D01*
X001794Y001856D01*
X001762Y001895D01*
X001734Y001936D01*
X001709Y001980D01*
X001688Y002025D01*
X001671Y002072D01*
X001657Y002120D01*
X001647Y002169D01*
X001641Y002219D01*
X001639Y002269D01*
X000300Y002269D02*
X000302Y002183D01*
X000307Y002097D01*
X000317Y002012D01*
X000330Y001927D01*
X000347Y001843D01*
X000367Y001759D01*
X000391Y001677D01*
X000419Y001596D01*
X000450Y001515D01*
X000484Y001437D01*
X000522Y001360D01*
X000564Y001285D01*
X000608Y001211D01*
X000656Y001140D01*
X000707Y001070D01*
X000761Y001003D01*
X000817Y000939D01*
X000877Y000877D01*
X000939Y000817D01*
X001003Y000761D01*
X001070Y000707D01*
X001140Y000656D01*
X001211Y000608D01*
X001284Y000564D01*
X001360Y000522D01*
X001437Y000484D01*
X001515Y000450D01*
X001596Y000419D01*
X001677Y000391D01*
X001759Y000367D01*
X001843Y000347D01*
X001927Y000330D01*
X002012Y000317D01*
X002097Y000307D01*
X002183Y000302D01*
X002269Y000300D01*
X037072Y002269D02*
X037074Y002319D01*
X037080Y002369D01*
X037090Y002418D01*
X037104Y002466D01*
X037121Y002513D01*
X037142Y002558D01*
X037167Y002602D01*
X037195Y002643D01*
X037227Y002682D01*
X037261Y002719D01*
X037298Y002753D01*
X037338Y002783D01*
X037380Y002810D01*
X037424Y002834D01*
X037470Y002855D01*
X037517Y002871D01*
X037565Y002884D01*
X037615Y002893D01*
X037664Y002898D01*
X037715Y002899D01*
X037765Y002896D01*
X037814Y002889D01*
X037863Y002878D01*
X037911Y002863D01*
X037957Y002845D01*
X038002Y002823D01*
X038045Y002797D01*
X038086Y002768D01*
X038125Y002736D01*
X038161Y002701D01*
X038193Y002663D01*
X038223Y002623D01*
X038250Y002580D01*
X038273Y002536D01*
X038292Y002490D01*
X038308Y002442D01*
X038320Y002393D01*
X038328Y002344D01*
X038332Y002294D01*
X038332Y002244D01*
X038328Y002194D01*
X038320Y002145D01*
X038308Y002096D01*
X038292Y002048D01*
X038273Y002002D01*
X038250Y001958D01*
X038223Y001915D01*
X038193Y001875D01*
X038161Y001837D01*
X038125Y001802D01*
X038086Y001770D01*
X038045Y001741D01*
X038002Y001715D01*
X037957Y001693D01*
X037911Y001675D01*
X037863Y001660D01*
X037814Y001649D01*
X037765Y001642D01*
X037715Y001639D01*
X037664Y001640D01*
X037615Y001645D01*
X037565Y001654D01*
X037517Y001667D01*
X037470Y001683D01*
X037424Y001704D01*
X037380Y001728D01*
X037338Y001755D01*
X037298Y001785D01*
X037261Y001819D01*
X037227Y001856D01*
X037195Y001895D01*
X037167Y001936D01*
X037142Y001980D01*
X037121Y002025D01*
X037104Y002072D01*
X037090Y002120D01*
X037080Y002169D01*
X037074Y002219D01*
X037072Y002269D01*
D11*
X037702Y002269D03*
X037702Y018017D03*
X002269Y018017D03*
X002269Y002269D03*
D12*
X010654Y007143D03*
X011654Y007143D03*
X012654Y007143D03*
X013654Y007143D03*
X014654Y007143D03*
X015654Y007143D03*
X016654Y007143D03*
X017654Y007143D03*
X018654Y007143D03*
X019654Y007143D03*
X020654Y007143D03*
X021654Y007143D03*
X013316Y008300D03*
X012316Y008300D03*
X011316Y008300D03*
X010316Y008300D03*
X014092Y012018D03*
X015092Y012018D03*
X014654Y013143D03*
X013654Y013143D03*
X012654Y013143D03*
X011654Y013143D03*
X010654Y013143D03*
X015654Y013143D03*
X016654Y013143D03*
X017654Y013143D03*
X018654Y013143D03*
X019654Y013143D03*
X020654Y013143D03*
X021654Y013143D03*
X019217Y012018D03*
X018217Y012018D03*
X032158Y015261D03*
X033158Y015261D03*
X034158Y015261D03*
X036914Y014308D03*
X036914Y013308D03*
X036914Y012308D03*
X034158Y017229D03*
X033158Y017229D03*
X032158Y017229D03*
X001087Y014457D03*
X001087Y013457D03*
X001087Y012457D03*
D13*
X005024Y014497D02*
X005024Y015237D01*
X006024Y015237D02*
X006024Y014497D01*
X007024Y014497D02*
X007024Y015237D01*
X007024Y016859D02*
X007024Y017599D01*
X006024Y017599D02*
X006024Y016859D01*
X005024Y016859D02*
X005024Y017599D01*
X004993Y005788D02*
X004993Y005048D01*
X005993Y005048D02*
X005993Y005788D01*
X006993Y005788D02*
X006993Y005048D01*
X006993Y003426D02*
X006993Y002686D01*
X005993Y002686D02*
X005993Y003426D01*
X004993Y003426D02*
X004993Y002686D01*
X032552Y002686D02*
X032552Y003426D01*
X033552Y003426D02*
X033552Y002686D01*
X034552Y002686D02*
X034552Y003426D01*
X034552Y005048D02*
X034552Y005788D01*
X033552Y005788D02*
X033552Y005048D01*
X032552Y005048D02*
X032552Y005788D01*
D14*
X032671Y011324D03*
X030934Y012898D03*
X027934Y012898D03*
X007031Y008206D03*
D15*
X005631Y008206D03*
X034071Y011324D03*
D16*
X029828Y010733D03*
X028253Y010733D03*
D17*
X036914Y009355D03*
X019198Y003056D03*
X002662Y005418D03*
X015261Y017229D03*
D18*
X017229Y017229D03*
X019198Y017229D03*
X002662Y009355D03*
X002662Y007387D03*
X015261Y003056D03*
X017229Y003056D03*
X036914Y005418D03*
X036914Y007387D03*
D19*
X029828Y003056D03*
X024709Y003056D03*
X011717Y003056D03*
X009749Y017229D03*
X022741Y017229D03*
X027859Y017229D03*
D20*
X029828Y017229D03*
X024709Y017229D03*
X011717Y017229D03*
X009749Y003056D03*
X022741Y003056D03*
X027859Y003056D03*
D21*
X028253Y007387D03*
X030103Y007387D03*
D22*
X001087Y015457D03*
M02*
